PathFileType	4	(X/Y/Z)	6_coords_data.trc
DataRate	CameraRate	NumFrames	NumMarkers	Units	OrigDataRate	OrigDataStartFrame	OrigNumFrames
30.0	30.0	5	21	m	30.0	57	75
Frame#	Time	THUMB_TIP	THUMB_IP	THUMB_MCP	THUMB_CMC	INDEX_TIP	INDEX_DIP	INDEX_PIP	INDEX_MCP	MIDDLE_TIP	MIDDLE_DIP	MIDDLE_PIP	MIDDLE_MCP	RING_TIP	RING_DIP	RING_PIP	RING_MCP	PINKY_TIP	PINKY_DIP	PINKY_PIP	PINKY_MCP	WRIST
X1	Y1	Z1	X2	Y2	Z2	X3	Y3	Z3	X4	Y4	Z4	X5	Y5	Z5	X6	Y6	Z6	X7	Y7	Z7	X8	Y8	Z8	X9	Y9	Z9	X10	Y10	Z10	X11	Y11	Z11	X12	Y12	Z12	X13	Y13	Z13	X14	Y14	Z14	X15	Y15	Z15	X16	Y16	Z16	X17	Y17	Z17	X18	Y18	Z18	X19	Y19	Z19	X20	Y20	Z20	X21	Y21	Z21
55	1.8666666666666587	0.5410356646132624	-0.036687674089475375	-0.1439317112347293	0.5277103190342644	-0.03562218256023997	-0.12524214481382462	0.4999977603018633	-0.038071922249927725	-0.11128389048328646	0.4827403731243751	-0.02850241688006172	-0.07127767653117179	0.5886700586469455	0.01527899528409693	-0.12828734570578693	0.5715974645376839	0.020922785375040664	-0.13044932715570062	0.546621839340213	0.023567680069705554	-0.1293391420136677	0.5091194274941386	0.010431399859270662	-0.11402106961664693	0.5953293449306892	0.024359025813520785	-0.1077705202610566	0.5795492025260898	0.03303786488914051	-0.10968490214303828	0.5511089144768185	0.03934123054841854	-0.10877542589820627	0.5104921752524789	0.026229778209409083	-0.09556489096036663	0.5934052654203945	0.029790759252104393	-0.0849881522950291	0.5777276820856678	0.038668611837384126	-0.08435798227293761	0.5536116380539381	0.04461589728637161	-0.0825618210752897	0.516074280135632	0.03172925374543423	-0.07484158709167232	0.5817509327630195	0.023223365370142912	-0.05973568357855791	0.5694193362186801	0.034800097621508264	-0.05710680605234386	0.5496334509223121	0.04146942909842166	-0.05490435748540323	0.5166784984153716	0.026959024933158937	-0.052830055861715686	0.4622830810018609	-0.023011742144276925	-0.051989820119430985
56	1.8999999999999915	0.5424966806931002	-0.036417010697899155	-0.14285149099452582	0.52904760836407	-0.035350228770704484	-0.12425083429084122	0.501237304872844	-0.03789152767416559	-0.11050496874482457	0.4831798297992589	-0.0282946066810158	-0.0708600863333696	0.5891519917334167	0.022396075295247786	-0.13275355989886334	0.5713001009347798	0.02543372068865013	-0.13304114532527084	0.5463577278117528	0.025056462112399758	-0.12991936186731717	0.5100350721943165	0.010022195284007385	-0.1135403630020072	0.5968427205526158	0.03388347549783055	-0.11097514684395726	0.579626351003833	0.03947608724341156	-0.11154022508892275	0.5506810747973809	0.041722020274855054	-0.10898360228716436	0.5112941294158544	0.025823092176922136	-0.0951257330480133	0.595222524671146	0.03932440870719889	-0.08572256857085825	0.5780826103085179	0.04474394588515851	-0.08436170398593723	0.5533794903311182	0.046722044164646426	-0.08190753007627283	0.5168184438494623	0.031145402406477674	-0.07446582693089882	0.5838695852305841	0.02914848849012419	-0.05831300739798545	0.5697510744251597	0.038451276478353114	-0.05564359018009396	0.5492972919932171	0.04274208286285375	-0.0536326740213533	0.5171307270433307	0.02646687772827805	-0.05248670362372554	0.4622830810018609	-0.023011742144276925	-0.051989820119430985
57	1.9333333333333247	0.5436445830124599	-0.03619266823727951	-0.1419659805541772	0.5301171259712857	-0.03511620786611824	-0.12342281094732449	0.5022434697469977	-0.03773633617978811	-0.10982081784667486	0.48357147660255895	-0.02811731213612234	-0.0704670245293667	0.5883516697377069	0.028733264565784622	-0.13665219926083283	0.5703010334873535	0.02942112741943037	-0.13534783134800799	0.545802815293743	0.026450281384535534	-0.13054978881222346	0.5107027957000041	0.009721251659539853	-0.11317842493429581	0.5967501919184017	0.04245257624394816	-0.11373438588126494	0.5788483702688784	0.04512125583599014	-0.11309961752692005	0.549995256901705	0.04380552238172253	-0.10920394755907609	0.5118457901009831	0.02552436634217481	-0.09483156300819773	0.5953597690593425	0.048002434450549414	-0.08618074632690709	0.5775640498678898	0.05018178872016743	-0.08429320998912215	0.5528797864300632	0.048606867989805624	-0.08139722272653693	0.5173372220618081	0.030715373257378276	-0.07423193359294472	0.5850720330684458	0.03439156797472753	-0.05699487279223425	0.5697146338083966	0.04151268474415093	-0.05445716045162574	0.5489092558694753	0.04374465199850752	-0.052734781284854204	0.5174456064114641	0.026117144471327958	-0.05229524498075283	0.4622830810018609	-0.023011742144276925	-0.051989820119430985
58	1.966666666666658	0.5445248068466789	-0.03596664948641648	-0.1412805392394536	0.5309646909407136	-0.03487477273284534	-0.12276214131274843	0.5030572740793006	-0.03757627517974271	-0.10924556006404795	0.4838999587632986	-0.02796864124129239	-0.07012292416118465	0.5867254932607622	0.03406057342379609	-0.13996209100579193	0.5688504486045911	0.032772386879504345	-0.13734993596311307	0.5449856779408506	0.027743226277648247	-0.13125156750853334	0.5111004027264329	0.009573218951360762	-0.11294105000066818	0.5955115647734404	0.0499424049352688	-0.11607557776684652	0.5774745108581196	0.04995362079314103	-0.11444322968498838	0.5490743685568675	0.04563500608050819	-0.10952479149462097	0.51212817567453	0.025364585409857754	-0.0946844141969922	0.5943006325992934	0.05567968601643414	-0.08649593176119419	0.5764297666444218	0.054932110199604534	-0.08424353738606677	0.5521646078830135	0.05030466056805338	-0.08108620319547033	0.5176413643173478	0.030437355282996736	-0.07414670260709372	0.5855686146567117	0.03914270239700257	-0.05605026247441203	0.5693876339953592	0.04419567698431914	-0.05367469671929914	0.5484487154103043	0.04464719839872244	-0.052201660432992236	0.5176312486438155	0.025907945952660993	-0.052288900671111305	0.4622830810018609	-0.023011742144276925	-0.051989820119430985
59	1.9999999999999911	0.5446751048178198	-0.035520510163485564	-0.14130298990404955	0.5312868219119292	-0.03448701330736692	-0.12265665607993737	0.503475063696905	-0.0373117570250755	-0.1089691826856874	0.48409495222992516	-0.027832626997639887	-0.0699250106052039	0.5846780741438163	0.038317532947962585	-0.14280168150291062	0.5671597262576981	0.03549041344509285	-0.1391802339114871	0.5439935697241304	0.028823159180017544	-0.1320467393241846	0.5112411449458576	0.009517856298854266	-0.11285767874764446	0.5936447277389174	0.05605232222567358	-0.11808036183772241	0.5758259805830895	0.053880913390753404	-0.11567677421329425	0.5480500684086114	0.04715929735445967	-0.10995592368768836	0.512215112107037	0.025290571739555068	-0.09466662455907371	0.5926294807118309	0.061903000467008806	-0.08682896262813727	0.5750487335343768	0.05875457665120787	-0.08437850223087595	0.5514105620072726	0.051664162825054594	-0.08104041031645914	0.5178134599535719	0.03023508261981467	-0.07420300663153429	0.5854449295530444	0.04342826742106676	-0.05551384391475811	0.5687947087351586	0.046741925025475695	-0.05332527817519561	0.5478693800241154	0.04561601918550129	-0.05203107055108486	0.5177664428160904	0.025753353764900955	-0.05244476710532675	0.4622830810018609	-0.023011742144276925	-0.051989820119430985
